<svg width="113" height="56" viewBox="0 0 113 56" fill="none" xmlns="http://www.w3.org/2000/svg">
<path d="M69.4904 43.2398C63.0385 48.0766 53.6886 50.6455 45.6328 50.6455C34.8727 50.6986 24.4809 46.6676 16.4943 39.3426C15.8929 38.7872 16.4305 38.0281 17.155 38.4585C26.0333 43.6204 36.0866 46.3331 46.3163 46.3271C53.9576 46.2891 61.516 44.716 68.5563 41.6985C69.6453 41.2357 70.5612 42.4298 69.495 43.2306" fill="#869AB8"/>
<path d="M72.174 40.1292C72.9987 41.2031 71.2627 45.6233 70.479 47.5997C70.2421 48.1968 70.7478 48.4375 71.2809 47.9839C74.7393 45.0447 75.6324 38.8842 74.9261 37.9909C74.2198 37.0976 68.1734 36.3524 64.4827 38.986C63.9132 39.3887 64.0271 39.9487 64.6376 39.87C66.7199 39.6201 71.3447 39.0554 72.174 40.1292ZM64.788 20.3654C64.7867 20.4519 64.8028 20.5377 64.8353 20.6175C64.8678 20.6974 64.916 20.7697 64.9771 20.83C65.0381 20.8902 65.1106 20.9372 65.1901 20.9679C65.2697 20.9987 65.3545 21.0126 65.4396 21.0088H71.3402L64.5602 30.9C64.2511 31.4308 64.1052 32.0432 64.141 32.6588V35.2508C64.141 35.6303 64.5511 36.0561 64.9475 35.8479C66.7918 34.8791 68.8378 34.3735 70.9141 34.3735C72.9904 34.3735 75.0365 34.8791 76.8808 35.8479C77.3046 36.0747 77.7101 35.6396 77.7101 35.2647V32.5338C77.7065 32.3285 77.6493 32.1277 77.5445 31.9521C77.4396 31.7765 77.2908 31.6322 77.1132 31.5341C75.1261 30.4952 72.9015 30.0158 70.6704 30.1455L76.5209 21.6614C77.0631 20.8977 77.3684 20.4163 77.3684 20.0507V17.8151C77.3696 17.7289 77.3537 17.6433 77.3215 17.5635C77.2893 17.4836 77.2416 17.4113 77.1811 17.3507C77.1206 17.2902 77.0487 17.2427 76.9697 17.2111C76.8907 17.1796 76.8062 17.1646 76.7213 17.1671H65.4259C65.3416 17.1652 65.2578 17.1807 65.1796 17.2126C65.1014 17.2445 65.0303 17.2921 64.9707 17.3527C64.9111 17.4132 64.8641 17.4854 64.8327 17.5649C64.8014 17.6444 64.7861 17.7295 64.788 17.8151V20.3654ZM23.5886 36.3616C23.6737 36.3641 23.7584 36.3493 23.8379 36.3182C23.9174 36.2871 23.99 36.2402 24.0514 36.1804C24.1129 36.1205 24.1621 36.0488 24.196 35.9695C24.23 35.8902 24.2481 35.8048 24.2492 35.7183V26.2205C24.2538 24.1469 24.149 21.2911 26.6277 21.2911C29.1064 21.2911 28.7419 24.2302 28.7419 26.2251V35.7229C28.7441 35.8892 28.8092 36.0483 28.9238 36.1672C29.0383 36.2861 29.1934 36.3557 29.357 36.3616H32.8063C32.8912 36.3635 32.9757 36.3483 33.0549 36.3169C33.1341 36.2856 33.2065 36.2387 33.2678 36.179C33.3292 36.1192 33.3783 36.0478 33.4125 35.9687C33.4467 35.8897 33.4652 35.8046 33.4669 35.7183V26.2205C33.4669 25.2022 33.435 23.698 33.7859 22.7954C33.9484 22.3723 34.23 22.0071 34.5954 21.7454C34.9608 21.4837 35.3939 21.337 35.8409 21.3235C36.8342 21.3235 37.6042 21.6614 37.8594 22.8695C38.0234 23.5823 37.9596 25.4707 37.9596 26.2205V35.7229C37.9618 35.8892 38.0269 36.0483 38.1415 36.1672C38.256 36.2861 38.4111 36.3557 38.5747 36.3616H42.0057C42.1778 36.3654 42.3443 36.2998 42.4689 36.1793C42.5936 36.0587 42.6662 35.893 42.671 35.7183V24.4154C42.671 22.4899 42.8897 20.3006 41.8007 18.7964C41.2446 18.0824 40.5122 17.5307 39.6782 17.1974C38.8441 16.8641 37.938 16.7612 37.052 16.8989C36.1661 17.0367 35.3318 17.4103 34.6341 17.9818C33.9364 18.5533 33.4 19.3022 33.0796 20.1525C32.1137 17.8938 30.7695 16.8385 28.6189 16.8385C26.4682 16.8385 24.9282 17.8938 24.0989 20.1525H24.0351V17.8382C24.0217 17.6769 23.9501 17.5262 23.834 17.4152C23.718 17.3041 23.5657 17.2405 23.4063 17.2365H20.2168C20.0447 17.2328 19.8782 17.2984 19.7536 17.4189C19.6289 17.5394 19.5563 17.7052 19.5515 17.8799V35.7738C19.5668 35.9307 19.6376 36.0767 19.7507 36.1848C19.8637 36.2929 20.0115 36.3557 20.1667 36.3616H23.6022H23.5886ZM87.0918 16.8339C82.1207 16.8339 79.3459 21.1708 79.3459 26.7528C79.3459 32.3348 82.0797 36.7412 87.0918 36.7412C91.9034 36.7412 94.9517 32.4042 94.9517 26.9379C94.9517 21.2911 92.1905 16.8339 87.0918 16.8339ZM87.0918 33.0337C84.399 33.0337 84.4309 28.3589 84.4309 26.1696C84.4309 23.9803 84.5903 20.4765 87.1237 20.4765C88.2173 20.4765 88.9827 20.9671 89.37 22.2122C89.7676 23.7614 89.941 25.3611 89.8849 26.9611C89.8849 29.2753 89.7619 33.0476 87.0918 33.0476V33.0337ZM101.563 36.3616C101.736 36.3654 101.903 36.3 102.028 36.1796C102.153 36.0591 102.227 35.8934 102.233 35.7183V26.0724C102.171 24.9146 102.357 23.757 102.78 22.6797C102.94 22.2722 103.213 21.9204 103.565 21.6667C103.918 21.413 104.335 21.2681 104.766 21.2495C107.145 21.2495 106.917 24.1099 106.917 26.0724V35.7923C106.936 35.9459 107.009 36.0875 107.122 36.1918C107.234 36.2961 107.38 36.3563 107.532 36.3616H110.977C111.135 36.3645 111.289 36.3088 111.41 36.2049C111.53 36.1009 111.61 35.9559 111.633 35.7969V24.5311C111.633 22.8 111.633 20.3654 110.722 18.9537C110.295 18.2747 109.7 17.7219 108.996 17.3514C108.292 16.9808 107.504 16.8055 106.712 16.8431C104.338 16.8431 102.989 18.0095 102.028 20.458H101.964V17.7133C101.929 17.5743 101.85 17.4505 101.74 17.3605C101.63 17.2704 101.495 17.2188 101.354 17.2134H98.164C98.0033 17.2121 97.8477 17.2708 97.7268 17.3783C97.6059 17.4858 97.528 17.6346 97.5079 17.7966V35.7229C97.5101 35.8892 97.5752 36.0483 97.6897 36.1672C97.8042 36.2861 97.9594 36.3557 98.123 36.3616H101.545H101.563ZM61.9038 33.08C61.275 32.1959 60.6052 31.4832 60.6052 29.84V24.4108C60.6052 22.0965 60.7646 19.9859 59.0924 18.3937C57.7756 17.1255 55.5885 16.6626 53.9209 16.6626C50.6493 16.6626 46.9996 17.903 46.2341 22.0086C46.2178 22.0909 46.2184 22.1758 46.2359 22.258C46.2533 22.3401 46.2873 22.4177 46.3356 22.4859C46.3839 22.5541 46.4456 22.6115 46.5167 22.6544C46.5878 22.6973 46.6669 22.7248 46.749 22.7352L50.0798 23.1055C50.2339 23.0782 50.3751 23.0007 50.482 22.8846C50.5889 22.7685 50.6556 22.6202 50.6721 22.4621C50.9637 21.0458 52.1256 20.3654 53.4379 20.3654C53.8091 20.3483 54.1788 20.4238 54.5147 20.5851C54.8507 20.7465 55.1427 20.9889 55.3652 21.2911C55.8482 22.0086 55.7844 22.9898 55.7844 23.8229V24.2858C53.7933 24.5126 51.187 24.6607 49.3234 25.4938C48.213 25.9492 47.2675 26.7408 46.6154 27.761C45.9633 28.7812 45.6361 29.9805 45.6782 31.1962C45.6782 34.825 47.9291 36.6393 50.8179 36.6393C53.2647 36.6393 54.5998 36.0515 56.4861 34.1029C56.9986 34.9893 57.6656 35.7735 58.4545 36.4172C58.5813 36.4901 58.7272 36.5217 58.8722 36.5076C59.0173 36.4935 59.1546 36.4345 59.2656 36.3385C59.949 35.7136 61.1975 34.612 61.8992 34.0242C61.9618 33.9632 62.0117 33.8901 62.0459 33.8092C62.0801 33.7283 62.0979 33.6412 62.0984 33.5531C62.0988 33.465 62.0818 33.3777 62.0483 33.2965C62.0149 33.2152 61.9657 33.1416 61.9038 33.08ZM55.7844 27.8081C55.7844 29.1689 55.8163 30.2982 55.142 31.5109C54.9218 31.9672 54.5848 32.355 54.1663 32.6335C53.7478 32.912 53.2633 33.071 52.7635 33.0939C51.4421 33.0939 50.6721 32.0756 50.6721 30.5667C50.6721 27.5952 53.2966 27.0536 55.7844 27.0536V27.8081ZM16.8587 33.08C16.2299 32.1959 15.5601 31.4832 15.5601 29.84V24.4108C15.5601 22.0965 15.7241 19.9859 14.0519 18.3937C12.7579 17.1255 10.548 16.6626 8.87577 16.6626C5.6088 16.6626 1.95908 17.903 1.1936 22.0086C1.17727 22.0906 1.17772 22.1752 1.1949 22.257C1.21209 22.3389 1.24565 22.4163 1.2935 22.4844C1.34135 22.5525 1.40247 22.61 1.47307 22.6531C1.54367 22.6963 1.62224 22.7242 1.70392 22.7352L5.03469 23.1055C5.18875 23.077 5.3298 22.9992 5.4372 22.8835C5.5446 22.7677 5.61271 22.6201 5.63158 22.4621C5.92319 21.0458 7.08509 20.3654 8.39279 20.3654C8.76401 20.3483 9.13371 20.4238 9.46965 20.5851C9.8056 20.7465 10.0976 20.9889 10.3202 21.2911C10.8032 22.0086 10.7394 22.9898 10.7394 23.8229V24.2858C8.74819 24.5126 6.14646 24.6607 4.27831 25.4938C3.16794 25.9492 2.22246 26.7408 1.57032 27.761C0.918177 28.7812 0.590973 29.9805 0.633153 31.1962C0.633153 34.825 2.88404 36.6393 5.77739 36.6393C8.21965 36.6393 9.55469 36.0515 11.4411 34.1029C11.9549 34.9882 12.6217 35.7722 13.4094 36.4172C13.5363 36.4901 13.6821 36.5217 13.8272 36.5076C13.9722 36.4935 14.1095 36.4345 14.2205 36.3385C14.904 35.7136 16.1524 34.612 16.8541 34.0242C16.9173 33.9636 16.9677 33.8906 17.0022 33.8096C17.0368 33.7286 17.0549 33.6414 17.0553 33.5531C17.0557 33.4648 17.0385 33.3774 17.0047 33.2961C16.9709 33.2148 16.9212 33.1412 16.8587 33.08ZM10.7394 27.8081C10.7394 29.1689 10.7713 30.2982 10.0969 31.5109C9.87669 31.9672 9.53969 32.355 9.12121 32.6335C8.70274 32.912 8.21822 33.071 7.71844 33.0939C6.40162 33.0939 5.62702 32.0756 5.62702 30.5667C5.62702 27.5952 8.2561 27.0536 10.7394 27.0536V27.8081Z" fill="#869AB8"/>
</svg>
