<svg width="136" height="56" viewBox="0 0 136 56" fill="none" xmlns="http://www.w3.org/2000/svg">
<g clip-path="url(#clip0)">
<path d="M2.0415 37.1024H8.90933C14.6051 37.1024 19.6873 33.7282 19.6873 27.4704C19.6873 20.3934 14.5226 17.7505 8.34617 17.7505H2.0415V37.1024ZM6.25835 21.6755H8.75824C12.3204 21.6755 15.3376 23.4528 15.3376 27.2621C15.3376 31.6639 12.389 33.1727 8.46979 33.1727H6.25835V21.6755ZM20.635 30.4512C20.635 34.7002 23.8766 37.394 27.9332 37.394C31.9898 37.394 35.2589 34.6585 35.2589 30.4512C35.2589 26.2438 32.0173 23.5084 27.9332 23.5084C23.8492 23.5084 20.635 26.2438 20.635 30.4512ZM24.687 30.4512C24.6196 29.6333 24.8741 28.8215 25.3954 28.1923C25.9166 27.5631 26.6625 27.1673 27.4708 27.0909H27.9286C28.3313 27.0664 28.7347 27.1225 29.1159 27.2559C29.4971 27.3893 29.8485 27.5974 30.15 27.8682C30.4515 28.1391 30.6972 28.4674 30.8731 28.8344C31.0489 29.2013 31.1515 29.5998 31.1748 30.0068C31.1873 30.1609 31.1873 30.3157 31.1748 30.4697C31.2087 30.8776 31.1627 31.2882 31.0395 31.6781C30.9163 32.0681 30.7183 32.4296 30.4568 32.7421C30.1953 33.0546 29.8754 33.312 29.5155 33.4994C29.1555 33.6869 28.7626 33.8008 28.359 33.8346C28.2172 33.8439 28.075 33.8439 27.9332 33.8346C27.5304 33.8591 27.1267 33.803 26.7452 33.6697C26.3638 33.5363 26.0121 33.3283 25.7102 33.0575C25.4083 32.7867 25.1622 32.4585 24.9858 32.0915C24.8095 31.7245 24.7064 31.3259 24.6825 30.9187C24.6729 30.7645 24.6729 30.6099 24.6825 30.4558L24.687 30.4512ZM48.3765 25.2672C47.1081 24.0735 45.4247 23.4347 43.6926 23.4899C39.6269 23.4899 36.3944 26.2253 36.3944 30.4327C36.3944 34.64 39.6406 37.3755 43.6926 37.3755C45.4247 37.4306 47.1081 36.7918 48.3765 35.5981L45.6934 32.7145C45.4583 33.0207 45.1589 33.2703 44.8169 33.4456C44.4749 33.6209 44.0988 33.7174 43.7155 33.7282C43.3126 33.7526 42.9089 33.6966 42.5275 33.5632C42.1461 33.4299 41.7944 33.2219 41.4925 32.9511C41.1906 32.6803 40.9444 32.352 40.7681 31.985C40.5917 31.618 40.4887 31.2195 40.4647 30.8122C40.4529 30.6581 40.4529 30.5034 40.4647 30.3493C40.3963 29.5288 40.653 28.7143 41.1785 28.085C41.7039 27.4557 42.4551 27.0632 43.2668 26.9937C43.4192 26.9811 43.5723 26.9811 43.7247 26.9937C44.1091 26.9985 44.4873 27.0923 44.8302 27.2681C45.1731 27.4438 45.4715 27.6967 45.7026 28.0073L48.3856 25.17L48.3765 25.2672ZM62.2312 23.8555H58.1471V30.4743C58.1471 32.2054 57.8266 33.867 55.7113 33.867C53.596 33.867 53.6098 31.8721 53.6098 30.4049V23.8555H49.544V31.1316C49.544 34.6863 50.2995 37.4217 54.4202 37.4217C55.1919 37.4531 55.9575 37.2709 56.6344 36.8949C57.3113 36.5189 57.8739 35.9633 58.2616 35.288V37.0885H62.2129V23.7768L62.2312 23.8555ZM63.2705 35.9591H69.6988V37.2968H63.2705V35.9591ZM72.6886 35.9591H79.1169V37.2968H72.6886V35.9591ZM82.125 35.9591H88.5533V37.2968H82.125V35.9591ZM91.5476 35.9591H97.9759V37.2968H91.5476V35.9591ZM100.97 35.9591H107.399V37.2968H100.97V35.9591ZM110.388 35.9591H116.817V37.2968H110.388V35.9591ZM119.811 35.9591H126.239V37.2968H119.811V35.9591ZM129.234 35.9591H135.662V37.2968H129.234V35.9591Z" fill="#869AB8"/>
<path d="M99.199 33.9735C98.5031 33.2653 105.549 27.5769 107.674 27.8638C106.864 30.3355 99.8904 34.677 99.199 33.9735ZM107.491 36.3387C109.047 33.5481 110.266 30.5784 111.122 27.4936C111.122 25.8921 109.684 25.0451 108.132 25.0451C103.027 25.0451 94.7899 33.8393 93.0546 33.8393C91.0767 33.8393 94.1031 29.6273 94.1031 27.9749C94.1031 26.878 93.1324 25.7486 92.3586 25.7486C90.8523 25.7486 86.086 30.3771 82.968 31.3815C83.5637 30.4262 83.9248 29.3407 84.0211 28.2156C84.0211 22.5827 68.2251 24.7535 68.2251 21.569C68.2251 18.7271 78.1056 13.8301 83.8929 13.8301C84.7079 13.8301 90.0373 14.1912 90.0373 16.0611C90.0373 16.7646 88.8973 16.9868 88.8973 17.6996C88.8973 18.4124 89.4787 18.5142 90.1976 18.5142C90.4445 18.4966 90.6856 18.4299 90.907 18.318C91.1284 18.2061 91.3258 18.0511 91.4878 17.8619C91.6499 17.6727 91.7734 17.453 91.8513 17.2155C91.9293 16.978 91.9601 16.7272 91.942 16.4777V16.4036C91.942 11.6223 87.8213 10.6272 84.5156 10.6272C75.9628 10.6272 65.8305 18.1347 65.8305 21.5413C65.8305 25.9939 80.2209 25.1747 80.2209 29.1691C80.2209 33.9735 64.7912 38.3151 64.7912 39.4907C64.7912 40.6664 65.6153 40.5553 66.5402 40.5553C72.8082 40.5553 89.2773 29.993 90.6737 28.5813C90.7882 31.0437 89.758 33.3857 89.758 34.4364C89.758 35.487 90.5593 36.9173 91.736 36.9173C92.9127 36.9173 94.6067 35.1769 97.1661 33.7884C97.0517 34.6076 97.7476 35.899 98.6725 35.899C100.65 35.899 106.667 30.9696 107.83 30.1272C107.435 32.2132 106.572 34.1799 105.307 35.8758C104.661 35.7034 103.996 35.6178 103.329 35.6213C100.925 35.6398 94.3183 42.7122 94.3183 46.0123C94.3183 47.3083 95.0142 48.5997 96.2916 48.5997C98.0635 48.5997 104.46 43.2769 106.822 37.8522C107.862 37.9679 109.569 38.7502 109.569 37.9216C109.569 37.0931 108.429 36.5331 107.537 36.3017L107.491 36.3387ZM96.8365 45.7948C96.4244 45.7948 96.1726 45.6096 96.1726 44.6376C96.1726 41.6245 102.386 37.3523 104.542 37.3523C103.288 40.2081 97.9811 45.7948 96.8365 45.7948ZM94.8265 19.2409C94.8265 18.9505 94.9117 18.6666 95.0714 18.4253C95.2311 18.1839 95.458 17.9958 95.7235 17.8849C95.989 17.774 96.2811 17.7452 96.5627 17.8022C96.8444 17.8592 97.103 17.9994 97.3058 18.205C97.5086 18.4107 97.6465 18.6726 97.702 18.9575C97.7574 19.2424 97.7281 19.5376 97.6175 19.8056C97.5069 20.0736 97.3202 20.3025 97.0809 20.4631C96.8416 20.6238 96.5606 20.7091 96.2733 20.7081C96.0829 20.7081 95.8944 20.6702 95.7186 20.5964C95.5427 20.5226 95.383 20.4144 95.2486 20.2781C95.1142 20.1418 95.0077 19.98 94.9353 19.802C94.8629 19.624 94.8259 19.4334 94.8265 19.2409ZM114.24 30.6132C113.429 31.6731 111.341 34.0753 111.341 35.0705C111.341 36.0656 111.799 36.5933 112.481 36.5933C114.217 36.5933 119.903 29.6505 122.577 29.6505C124.555 29.6505 121.309 36.8108 125.604 36.8108C127.156 36.8108 132.352 33.344 132.352 31.326C132.352 30.9696 131.986 30.354 131.519 30.354C131.244 30.354 127.696 34.6956 126.185 34.6956C124.908 34.6956 126.185 32.0064 126.185 30.2383C126.185 28.4702 125.91 26.8456 124.079 26.8456C121.643 26.8456 118.127 30.0069 117.353 30.479C117.633 30.02 117.791 29.4953 117.811 28.9562C117.73 28.4357 117.481 27.9571 117.102 27.5952C116.724 27.2333 116.237 27.0087 115.718 26.9567C114.922 26.9567 110.627 29.1876 110.627 32.048C110.627 32.7516 113.173 30.2568 114.212 30.6178L114.24 30.6132ZM132.123 43.9017H132.627V42.7446H132.993L133.703 43.9017H134.225L133.52 42.7446C133.607 42.7458 133.693 42.7296 133.774 42.697C133.855 42.6643 133.928 42.6158 133.99 42.5543C134.053 42.4928 134.102 42.4194 134.136 42.3385C134.17 42.2576 134.188 42.1706 134.188 42.0827C134.191 42.0503 134.191 42.0179 134.188 41.9855C134.188 41.4532 133.882 41.1524 133.231 41.1524H132.178V43.9295L132.123 43.9017ZM132.682 41.6152H133.048C133.355 41.6152 133.712 41.6152 133.712 41.9994C133.712 42.3836 133.369 42.3789 133.048 42.3789H132.682V41.6152ZM130.699 42.5826C130.692 43.0596 130.825 43.5281 131.081 43.9288C131.338 44.3295 131.706 44.6442 132.139 44.8334C132.572 45.0225 133.052 45.0774 133.516 44.9911C133.98 44.9049 134.408 44.6814 134.747 44.3489C135.085 44.0165 135.319 43.5899 135.417 43.1234C135.516 42.6568 135.476 42.1711 135.301 41.7278C135.127 41.2845 134.826 40.9035 134.437 40.633C134.048 40.3624 133.589 40.2146 133.117 40.2081C132.491 40.2081 131.889 40.457 131.443 40.9013C130.997 41.3456 130.741 41.9495 130.732 42.5826H130.699ZM131.153 42.5826C131.409 42.3175 131.759 42.1651 132.126 42.1583C132.492 42.1516 132.847 42.291 133.113 42.5465C133.379 42.8019 133.535 43.1529 133.547 43.5236C133.559 43.8943 133.426 44.2548 133.177 44.5273C132.928 44.7998 132.583 44.9624 132.217 44.9799C131.85 44.9974 131.492 44.8685 131.219 44.6209C130.946 44.3733 130.78 44.027 130.757 43.6569C130.735 43.2867 130.857 42.9224 131.098 42.6427V42.5826" fill="#869AB8"/>
</g>
<defs>
<clipPath id="clip0">
<rect width="135.983" height="55.5424" fill="white" transform="translate(-0.00012207)"/>
</clipPath>
</defs>
</svg>
