<svg width="12" height="25" viewBox="0 0 12 25" fill="none" xmlns="http://www.w3.org/2000/svg">
<path d="M11.793 16.2148C11.793 12.9922 8.98535 12.0278 6.54395 11.0879V5.30176C7.78906 5.44824 8.75342 6.13184 9.4248 7.35254L11.0117 6.36377C9.98633 4.55713 8.43604 3.69043 6.54395 3.56836V0.748535H5.70166V3.56836C3.13818 3.71484 1.11182 5.38721 1.11182 8.01172C1.11182 10.8071 3.44336 11.7837 5.70166 12.6626V19.4375C3.72412 19.2666 2.24707 18.0703 1.9541 15.8975L0.0620117 16.3735C0.550293 19.3398 2.91846 20.9878 5.70166 21.1587V24.1982L6.54395 24.1738V21.1587C9.52246 21.0122 11.793 19.0957 11.793 16.2148ZM3.01611 7.92627C3.01611 6.47363 4.15137 5.39941 5.70166 5.27734V10.7461C4.2002 10.1113 3.01611 9.37891 3.01611 7.92627ZM6.54395 19.4497V13.0044C8.33838 13.7246 9.88867 14.5425 9.88867 16.3735C9.88867 18.0459 8.60693 19.3276 6.54395 19.4497Z" fill="#161B2D"/>
</svg>
