<svg width="18" height="18" viewBox="0 0 18 18" fill="none" xmlns="http://www.w3.org/2000/svg">
<path d="M8.625 0C3.86922 0 0 3.86922 0 8.625C0 13.3808 3.86922 17.25 8.625 17.25C13.3808 17.25 17.25 13.3808 17.25 8.625C17.25 3.86922 13.3808 0 8.625 0ZM13.4058 6.86774L7.89733 12.3762C7.72968 12.5438 7.49732 12.6401 7.26029 12.6401V13.013L7.25227 12.6401C7.01208 12.638 6.77878 12.5377 6.61206 12.3648L3.83304 9.48433C3.48804 9.12683 3.4983 8.55563 3.85579 8.21063C4.02456 8.04764 4.24667 7.95812 4.48108 7.95812C4.72781 7.95812 4.95812 8.05584 5.1295 8.23338L7.27185 10.4539L12.1321 5.59385C12.3021 5.42377 12.5283 5.32997 12.7691 5.32997C13.0097 5.32997 13.2359 5.42359 13.406 5.59366C13.7569 5.945 13.7569 6.51658 13.4058 6.86774Z" fill="#53C2A1"/>
</svg>
