<svg width="21" height="21" viewBox="0 0 21 21" fill="none" xmlns="http://www.w3.org/2000/svg">
<path opacity="0.1" d="M0 10.5C0 4.71036 4.71036 0 10.5 0C16.2896 0 21 4.71036 21 10.5C21 16.2896 16.2896 21 10.5 21C4.71036 21 0 16.2896 0 10.5Z" fill="#53C2A1"/>
<path d="M9.89852 14.3763L15.407 8.86785C15.7581 8.51669 15.7581 7.94511 15.4071 7.59377C15.2371 7.42369 15.0109 7.33008 14.7703 7.33008C14.5295 7.33008 14.3033 7.42388 14.1333 7.59396L9.27305 12.454L7.13069 10.2335C6.95931 10.056 6.729 9.95823 6.48228 9.95823C6.24786 9.95823 6.02576 10.0477 5.85699 10.2107C5.49949 10.5557 5.48924 11.1269 5.83424 11.4844L8.61326 14.3649C8.77998 14.5378 9.01327 14.6381 9.25347 14.6402L9.26148 15.0131V14.6402C9.49851 14.6402 9.73087 14.5439 9.89852 14.3763Z" fill="#53C2A1"/>
</svg>
