<svg width="137" height="56" viewBox="0 0 137 56" fill="none" xmlns="http://www.w3.org/2000/svg">
<g clip-path="url(#clip0)">
<path d="M16.4332 23.2306C18.0545 24.8737 19.3781 27.5675 18.6179 29.169C16.5889 33.4504 1.46135 40.9533 0.178961 39.6573C-1.10343 38.3613 6.32526 23.064 10.5617 21.0135C12.1464 20.2452 14.8073 21.5875 16.4378 23.226L16.4332 23.2306ZM24.4481 21.4255C24.1825 20.4396 23.5322 19.4445 22.5108 19.3241C20.6788 19.1112 17.7752 22.3928 17.9812 23.1751C18.1873 23.9573 22.2818 25.3273 23.8161 24.2165C24.6039 23.6426 24.7321 22.4067 24.4573 21.4394L24.4481 21.4255ZM18.7782 12.3258C20.1521 12.6961 21.5261 13.6496 21.6864 15.0705C21.9841 17.6717 17.4042 21.7773 16.3279 21.4857C15.2516 21.1941 13.3418 15.3945 14.8806 13.2284C15.6775 12.1083 17.3904 11.9509 18.7598 12.3027L18.7782 12.3258ZM59.4848 27.7434L58.1108 27.5351C56.8238 27.3407 56.0773 26.9196 56.0773 26.1466C56.0773 25.2672 57.0483 24.7164 58.4864 24.7164C59.4158 24.7579 60.3205 25.0314 61.1198 25.5125L61.2756 25.5912C61.5737 25.7436 61.9188 25.7734 62.2382 25.6741C62.5576 25.5748 62.8266 25.3543 62.9885 25.0589L63.0984 24.8599C63.1867 24.7021 63.2423 24.5277 63.2617 24.3475C63.2811 24.1672 63.2639 23.9849 63.2112 23.8116C63.1584 23.6383 63.0713 23.4777 62.955 23.3396C62.8388 23.2015 62.6959 23.0888 62.5351 23.0084C61.2962 22.3079 59.9057 21.9264 58.4864 21.8976C55.0422 21.8976 52.821 23.5824 52.821 26.2854C52.821 28.5071 54.4011 29.8957 57.4009 30.3123L58.7749 30.4882C60.213 30.6964 60.9183 31.1269 60.9183 31.8073C60.9183 32.4877 60.5794 33.2792 58.3444 33.2792C57.1114 33.2943 55.899 32.9591 54.8453 32.3118C54.6442 32.1821 54.4106 32.1131 54.1721 32.1128C53.9509 32.1147 53.7338 32.1729 53.5409 32.2822C53.348 32.3914 53.1854 32.548 53.0683 32.7376L52.9904 32.8626C52.8966 33.0167 52.8344 33.1883 52.8077 33.3673C52.7809 33.5462 52.7901 33.7287 52.8347 33.904C52.8772 34.0753 52.954 34.236 53.0603 34.3761C53.1667 34.5162 53.3003 34.6328 53.453 34.7186C54.9538 35.5612 56.629 36.0367 58.3444 36.1072C61.9351 36.1072 64.1564 34.515 64.1564 31.7193C64.1564 29.4791 62.5854 28.197 59.4848 27.7481V27.7434ZM101.217 32.6265C100.999 32.3816 100.702 32.2229 100.379 32.1788C100.056 32.1347 99.7285 32.2081 99.4541 32.3858C98.7735 32.8395 97.9793 33.0883 97.1641 33.1033C95.0069 33.1033 93.4406 31.3815 93.4406 29.0116C93.4406 26.6418 95.0069 24.9154 97.1641 24.9154C97.9573 24.9167 98.7316 25.1604 99.3854 25.6143C99.658 25.7889 99.9818 25.863 100.302 25.8242C100.623 25.7854 100.92 25.6361 101.144 25.4014L101.259 25.2811C101.411 25.122 101.528 24.9309 101.6 24.7214C101.672 24.5119 101.698 24.289 101.675 24.0684C101.652 23.8532 101.582 23.6459 101.47 23.4611C101.359 23.2764 101.208 23.1187 101.03 22.9992C99.8952 22.2683 98.5734 21.8901 97.2282 21.9115C93.1063 21.9115 90.1934 24.8367 90.1934 29.0209C90.1934 33.2051 93.0742 36.1026 97.2145 36.1026C98.5702 36.125 99.9017 35.7382 101.039 34.9917C101.212 34.8724 101.358 34.7176 101.467 34.5373C101.577 34.3571 101.648 34.1555 101.675 33.9457C101.701 33.7296 101.681 33.5106 101.616 33.3031C101.551 33.0956 101.443 32.9044 101.3 32.7422L101.199 32.6265H101.217ZM34.208 17.0978C33.9533 17.0965 33.701 17.1467 33.4658 17.2455C33.2306 17.3442 33.0173 17.4895 32.8385 17.6728C32.6597 17.8561 32.519 18.0737 32.4246 18.3128C32.3302 18.5519 32.2841 18.8076 32.289 19.0649C32.2834 19.3212 32.3292 19.5759 32.4236 19.8138C32.5181 20.0516 32.6592 20.2677 32.8386 20.4489C33.0179 20.6302 33.2317 20.7728 33.467 20.8683C33.7024 20.9637 33.9545 21.01 34.208 21.0043C34.7206 21.0098 35.2144 20.8093 35.5807 20.4469C35.947 20.0845 36.1559 19.5899 36.1614 19.0719C36.1668 18.5538 35.9685 18.0548 35.6099 17.6846C35.2513 17.3144 34.7618 17.1033 34.2492 17.0978H34.208ZM34.808 22.0179H33.6584C33.3912 22.0179 33.1349 22.1252 32.946 22.3162C32.757 22.5071 32.6508 22.7662 32.6508 23.0362V34.7557C32.6508 34.8892 32.6769 35.0213 32.7276 35.1446C32.7783 35.2679 32.8526 35.3799 32.9462 35.4741C33.0399 35.5682 33.151 35.6428 33.2732 35.6935C33.3954 35.7441 33.5263 35.7699 33.6584 35.7693H34.808C35.0744 35.7693 35.33 35.6627 35.5189 35.4727C35.7077 35.2827 35.8144 35.0249 35.8156 34.7557V23.0362C35.8144 22.7665 35.7078 22.5082 35.5191 22.3175C35.3304 22.1268 35.0749 22.0192 34.808 22.0179ZM72.0247 33.0431C71.2959 33.0431 70.597 32.7505 70.0816 32.2297C69.5663 31.7089 69.2767 31.0025 69.2767 30.266V24.9941H72.0247C72.2919 24.9941 72.5482 24.8868 72.7372 24.6958C72.9262 24.5049 73.0323 24.2459 73.0323 23.9758V23.0501C73.0311 22.7804 72.9246 22.5221 72.7359 22.3314C72.5472 22.1407 72.2916 22.033 72.0247 22.0318H69.2767V18.977C69.2781 18.8403 69.252 18.7048 69.2002 18.5786C69.1483 18.4524 69.0717 18.338 68.975 18.2425C68.8783 18.1469 68.7635 18.0721 68.6375 18.0226C68.5115 17.973 68.3768 17.9497 68.2417 17.9541H67.0509C66.9184 17.9541 66.7872 17.9806 66.6649 18.0321C66.5426 18.0836 66.4317 18.1591 66.3384 18.2542C66.2451 18.3494 66.1714 18.4622 66.1216 18.5862C66.0717 18.7103 66.0467 18.8431 66.0479 18.977V30.0855C66.0479 33.2838 68.4478 36.1026 71.7728 36.1026C72.1036 36.1026 72.421 35.9701 72.6553 35.7341C72.8897 35.4981 73.0219 35.1779 73.0232 34.8436V34.0614C73.0207 33.7905 72.9126 33.5315 72.7221 33.3408C72.5317 33.1501 72.2745 33.0431 72.0064 33.0431H72.0247ZM44.545 21.9022C43.7424 21.8807 42.9436 22.0193 42.1941 22.3102C41.4446 22.6011 40.7593 23.0385 40.1773 23.5974C39.5954 24.1563 39.1282 24.8257 38.8025 25.5674C38.4769 26.309 38.2992 27.1082 38.2796 27.9193V34.7557C38.2796 35.0245 38.3853 35.2823 38.5734 35.4724C38.7615 35.6625 39.0166 35.7693 39.2826 35.7693H40.4322C40.6982 35.7693 40.9533 35.6625 41.1414 35.4724C41.3295 35.2823 41.4352 35.0245 41.4352 34.7557V28.4516C41.4352 26.341 42.6993 24.9432 44.545 24.9432C46.3907 24.9432 47.6548 26.3317 47.6548 28.4516V34.7557C47.656 35.0249 47.7627 35.2827 47.9515 35.4727C48.1403 35.6627 48.3959 35.7693 48.6624 35.7693H49.8074C49.9395 35.7699 50.0704 35.7441 50.1926 35.6935C50.3148 35.6428 50.4259 35.5682 50.5196 35.4741C50.6132 35.3799 50.6875 35.2679 50.7382 35.1446C50.7889 35.0213 50.8149 34.8892 50.8149 34.7557V27.9378C50.7954 27.1263 50.6175 26.3267 50.2916 25.5848C49.9657 24.8428 49.4981 24.1732 48.9156 23.6142C48.3332 23.0553 47.6473 22.618 46.8973 22.3274C46.1473 22.0368 45.3479 21.8986 44.545 21.9207V21.9022ZM127.323 22.0457C126.63 21.9451 125.93 21.8971 125.23 21.9022H125.079C123.482 21.9108 121.954 22.5587 120.83 23.704C119.705 24.8492 119.076 26.3984 119.079 28.0119V34.7557C119.08 35.0249 119.187 35.2827 119.376 35.4727C119.565 35.6627 119.82 35.7693 120.087 35.7693H121.232C121.364 35.7699 121.495 35.7441 121.617 35.6935C121.739 35.6428 121.85 35.5682 121.944 35.4741C122.038 35.3799 122.112 35.2679 122.163 35.1446C122.213 35.0213 122.239 34.8892 122.239 34.7557V28.1276C122.218 27.7143 122.281 27.301 122.424 26.9131C122.567 26.5253 122.787 26.1713 123.071 25.8728C123.354 25.5744 123.696 25.3379 124.073 25.178C124.451 25.0181 124.857 24.9382 125.267 24.9432C125.587 24.9519 125.905 24.9875 126.219 25.0496C126.568 25.1192 126.93 25.0496 127.229 24.8554C127.527 24.6612 127.74 24.3576 127.822 24.0082L128.019 23.1751C128.048 23.0546 128.053 22.9294 128.034 22.8069C128.014 22.6845 127.97 22.5673 127.905 22.4623C127.84 22.3566 127.754 22.2652 127.654 22.1937C127.553 22.1221 127.439 22.0718 127.319 22.0457H127.323ZM135.718 24.9941C135.851 24.9947 135.982 24.9688 136.104 24.9178C136.227 24.8669 136.338 24.7919 136.432 24.6972C136.526 24.6025 136.6 24.49 136.65 24.3662C136.701 24.2424 136.726 24.1097 136.726 23.9758V23.0501C136.726 22.78 136.62 22.521 136.431 22.3301C136.242 22.1391 135.985 22.0318 135.718 22.0318H132.97V18.977C132.97 18.8435 132.944 18.7113 132.893 18.588C132.843 18.4647 132.768 18.3528 132.675 18.2586C132.581 18.1644 132.47 18.0898 132.348 18.0392C132.226 17.9885 132.095 17.9627 131.963 17.9633H130.758C130.492 17.9633 130.236 18.07 130.047 18.26C129.858 18.4499 129.752 18.7077 129.75 18.977V30.0855C129.75 33.2838 132.155 36.1026 135.48 36.1026C135.644 36.1032 135.806 36.0707 135.957 36.0071C136.108 35.9436 136.245 35.8501 136.359 35.7323C136.593 35.4968 136.725 35.1772 136.726 34.8436V34.0614C136.723 33.7905 136.615 33.5315 136.425 33.3408C136.234 33.1501 135.977 33.0431 135.709 33.0431C134.98 33.0431 134.281 32.7505 133.766 32.2297C133.251 31.7089 132.961 31.0025 132.961 30.266V24.9941H135.718ZM113.84 23.0084C112.704 22.2767 111.381 21.8984 110.034 21.9207H109.887C108.542 21.8993 107.22 22.2775 106.086 23.0084C104.176 24.2211 103.008 26.3688 103.008 29.0255C103.008 31.8027 104.286 34.029 106.361 35.2046C107.375 35.8127 108.534 36.1325 109.713 36.1303C110.483 36.146 111.246 35.9879 111.947 35.6676C112.648 35.3473 113.27 34.8729 113.766 34.2789V34.7418C113.766 34.8757 113.791 35.0084 113.842 35.1322C113.892 35.256 113.967 35.3685 114.06 35.4632C114.154 35.5578 114.265 35.6328 114.388 35.6838C114.51 35.7347 114.642 35.7607 114.774 35.76H115.919C116.051 35.76 116.182 35.7337 116.304 35.6824C116.426 35.6312 116.537 35.5561 116.63 35.4615C116.723 35.3669 116.797 35.2546 116.847 35.1311C116.897 35.0076 116.923 34.8753 116.922 34.7418V29.0116C116.922 26.3549 115.759 24.2072 113.849 22.9946L113.84 23.0084ZM111.22 32.9042C110.834 33.0352 110.431 33.1069 110.025 33.1172H109.809C109.43 33.1026 109.055 33.0325 108.696 32.9089C107.213 32.3812 106.228 30.9093 106.228 29.0302C106.228 26.8085 107.602 25.1561 109.544 24.9571H110.377C112.319 25.1561 113.693 26.8085 113.693 29.0302C113.689 30.8908 112.704 32.3627 111.22 32.8904V32.9042ZM85.2196 22.9946C84.0852 22.2637 82.7634 21.8854 81.4182 21.9069H81.2717C79.9249 21.8845 78.6014 22.2628 77.4657 22.9946C75.5559 24.2072 74.3926 26.3549 74.3926 29.0116C74.3926 31.7888 75.6704 34.0151 77.7451 35.1907C78.7512 35.7896 79.8979 36.1045 81.0656 36.1026C81.8351 36.1195 82.5986 35.962 83.3001 35.6416C84.0015 35.3213 84.6229 34.8461 85.1188 34.2511V34.714C85.1188 34.8477 85.1449 34.9801 85.1955 35.1037C85.2462 35.2272 85.3204 35.3395 85.4139 35.434C85.5075 35.5286 85.6186 35.6036 85.7408 35.6548C85.8631 35.7059 85.9941 35.7323 86.1264 35.7323H87.2714C87.4039 35.7329 87.5352 35.707 87.6577 35.656C87.7802 35.6051 87.8915 35.5301 87.9852 35.4354C88.0789 35.3407 88.1531 35.2282 88.2035 35.1044C88.2539 34.9806 88.2796 34.8479 88.279 34.714V29.0116C88.279 26.3549 87.1111 24.2072 85.2013 22.9946H85.2196ZM82.6044 32.8904C82.2185 33.0206 81.8157 33.0923 81.409 33.1033H81.1892C80.8102 33.0884 80.4354 33.0182 80.0763 32.895C78.5924 32.3673 77.6077 30.8955 77.6077 29.0163C77.6077 26.7946 78.9817 25.1422 80.9282 24.9432H81.7525C83.699 25.1422 85.0684 26.7946 85.0684 29.0163C85.0684 30.8955 84.0837 32.3673 82.6044 32.895V32.8904Z" fill="#869AB8"/>
</g>
<defs>
<clipPath id="clip0">
<rect width="136.941" height="55.5424" fill="white"/>
</clipPath>
</defs>
</svg>
