<svg width="86" height="19" viewBox="0 0 86 19" fill="none" xmlns="http://www.w3.org/2000/svg">
<path fill-rule="evenodd" clip-rule="evenodd" d="M0.832031 1.14156V18.3002H11.4867V14.8877H4.40859V1.14156H0.832031ZM1.13281 1.44156V18H11.1867V18.0002H1.13203V1.44156H1.13281ZM12.3979 8.43611L12.2197 8.6792L14.9105 10.6322L15.078 10.3477C15.5448 9.55521 16.3732 8.84313 17.5852 8.84313C18.4888 8.84313 18.9767 9.02426 19.2599 9.33215C19.5142 9.60866 19.6553 10.0411 19.7062 10.7158H16.8352C15.5056 10.7158 14.2753 10.9288 13.3687 11.502C12.4395 12.0894 11.8828 13.0352 11.8828 14.4025C11.8828 15.7091 12.3798 16.7526 13.214 17.4651C14.0427 18.1729 15.1803 18.5345 16.4367 18.5345C17.6077 18.5345 18.9772 18.0997 19.8757 17.1859L20.0005 18.3002H22.9242V10.8986C22.9242 9.40223 22.4323 8.1077 21.499 7.18698C20.5656 6.2662 19.219 5.74703 17.5617 5.74703C15.1394 5.74703 13.5677 6.83976 12.3979 8.43611ZM20.0226 11.0156C20.0192 10.9122 20.014 10.8122 20.0071 10.7158C19.8977 9.1959 19.3372 8.54313 17.5852 8.54313C17.3766 8.54313 17.1784 8.56222 16.9904 8.59766C17.1786 8.56212 17.3771 8.54297 17.5859 8.54297C19.4492 8.54297 19.9648 9.28125 20.0234 11.0156H20.0226ZM15.0653 11.175C13.357 11.5215 12.1828 12.4728 12.1828 14.4025C12.1828 16.8517 14.0344 18.2345 16.4367 18.2345C16.7514 18.2345 17.0791 18.2014 17.4059 18.1349C17.0793 18.2013 16.7519 18.2344 16.4375 18.2344C14.0352 18.2344 12.1836 16.8516 12.1836 14.4023C12.1836 12.4729 13.3574 11.5217 15.0653 11.175ZM20.0931 16.4308L20.2687 18.0002H22.6242V18H20.2695L20.0938 16.4297C20.0935 16.4301 20.0933 16.4304 20.0931 16.4308ZM16.2347 6.17386C14.7602 6.47229 13.6843 7.27735 12.8213 8.37442C12.7597 8.45264 12.6993 8.53233 12.6398 8.61344L14.8195 10.1955C14.8196 10.1953 14.8197 10.1951 14.8198 10.195L12.6406 8.61328C13.5336 7.39475 14.6554 6.49371 16.2347 6.17386ZM19.695 13.3783C19.4467 14.5312 18.4939 15.5205 17.0109 15.5205C16.4102 15.5205 16.0071 15.3902 15.7618 15.2077C15.5272 15.0331 15.4125 14.7936 15.4125 14.4963C15.4125 14.212 15.5255 13.9429 15.7669 13.7401C16.0113 13.5347 16.4111 13.3783 17.0109 13.3783H19.695ZM17.6823 15.7548C18.9663 15.4944 19.7838 14.4944 20.0012 13.3783C20.0145 13.3099 20.0256 13.2411 20.0344 13.172V13.0783H17.0109C16.7888 13.0783 16.5872 13.0981 16.4055 13.1347C16.5874 13.098 16.7893 13.0781 17.0117 13.0781H20.0352V13.1719C19.8829 14.3693 19.0454 15.4788 17.6823 15.7548ZM25.3828 5.99313V18.3002H28.8422V11.59C28.8422 10.616 29.0828 9.97634 29.4632 9.57995C29.8417 9.18561 30.4049 8.98375 31.1555 8.98375C31.804 8.98375 32.2746 9.22612 32.5897 9.61978C32.9117 10.022 33.0938 10.611 33.0938 11.3322V18.3002H36.5531V10.9689C36.5531 9.70085 36.2415 8.40141 35.5068 7.4108C34.763 6.40798 33.6031 5.74703 31.9758 5.74703C30.9563 5.74703 29.7854 6.08503 28.8422 6.91117V5.99313H25.3828ZM28.543 7.65154C28.6387 7.5344 28.7386 7.42445 28.8422 7.32145C29.4985 6.66881 30.3002 6.29518 31.0825 6.13721C30.1766 6.3203 29.2448 6.79256 28.543 7.65234V7.65154ZM36.2531 18H33.3945V11.332C33.3945 9.79688 32.6211 8.68359 31.1562 8.68359C30.9005 8.68359 30.66 8.70559 30.4363 8.75082C30.6598 8.7057 30.9001 8.68375 31.1555 8.68375C32.6203 8.68375 33.3937 9.79703 33.3937 11.3322V18.0002H36.2531V18ZM28.5422 18V18.0002H25.6828V6.29313H25.6836V18H28.5422ZM46.8352 16.6767L46.9641 18.0002H49.6242V18H46.9648L46.8359 16.6758C46.8357 16.6761 46.8355 16.6764 46.8352 16.6767ZM46.7188 1.44156H46.718V7.46387C46.7182 7.46419 46.7185 7.46452 46.7188 7.46484V1.44156ZM42.2418 6.17621C39.7268 6.76808 38.3633 9.31084 38.3633 12.1406C38.3633 15.4102 40.1445 18.2344 43.4375 18.2344C43.7438 18.2344 44.0508 18.2093 44.3516 18.156C44.0505 18.2093 43.7433 18.2345 43.4367 18.2345C40.1437 18.2345 38.3625 15.4103 38.3625 12.1408C38.3625 9.31071 39.7263 6.76774 42.2418 6.17621ZM43.3898 5.74703C44.4319 5.74703 45.5585 6.03302 46.418 6.73809V1.14156H49.9242V18.3002H46.6918L46.6034 17.3914C45.7353 18.2075 44.567 18.5345 43.4367 18.5345C41.694 18.5345 40.3387 17.7827 39.4269 16.5966C38.5211 15.4183 38.0625 13.8262 38.0625 12.1408C38.0625 10.4724 38.5214 8.88118 39.4201 7.69942C40.3246 6.51003 41.6677 5.74703 43.3898 5.74703ZM44.1281 15.3447C43.2322 15.3447 42.6092 15.0007 42.2008 14.4519C41.7832 13.8908 41.5687 13.0856 41.5687 12.1408C41.5687 11.2083 41.783 10.4026 42.2012 9.83791C42.6105 9.28544 43.2338 8.93688 44.1281 8.93688C45.0237 8.93688 45.6401 9.28048 46.0426 9.8282C46.4548 10.3891 46.6641 11.1945 46.6641 12.1408C46.6641 13.0995 46.4545 13.9043 46.043 14.4616C45.6413 15.0057 45.0254 15.3447 44.1281 15.3447ZM52.7812 1.14156V18.3002H56.2406V14.6822L57.7028 13.0682L61.0137 18.3002H65.1198L60.0757 10.8616L64.7806 5.99313H60.2258L56.2406 10.38V1.14156H52.7812ZM55.9406 18H53.082V1.44156H53.0812V18.0002H55.9406V18ZM57.7456 12.5748L61.1789 18.0002H64.5539L64.5538 18H61.1797L57.7461 12.5742L57.7456 12.5748ZM60.3592 6.29313H60.3586L55.9414 11.1555V11.1562L60.3592 6.29313ZM65.7891 1.14156V4.37828H69.3891V1.14156H65.7891ZM65.8594 5.99313V18.3002H69.3188V5.99313H65.8594ZM66.0891 4.07828H69.0891V4.07812H66.0898V1.44156H66.0891V4.07828ZM66.1594 18.0002H69.0188V18H66.1602V6.29313H66.1594V18.0002ZM78.8163 18.1636L79.0102 18.0902V14.8143L78.5793 15.0232C78.2105 15.202 77.6136 15.415 77.0813 15.415C76.7436 15.415 76.5097 15.3404 76.3576 15.1941C76.2073 15.0496 76.0805 14.7802 76.0805 14.2619V8.98375H79.0102V5.99313H76.0805V0.759766L72.668 3.23383V5.99313H70.7344V8.98375H72.6211V14.7658C72.6211 15.8981 72.9867 16.8495 73.685 17.5168C74.3818 18.1828 75.3768 18.5345 76.5773 18.5345C77.4684 18.5345 78.3482 18.3407 78.8163 18.1636ZM78.7102 8.68359H75.7812V8.68375H78.7102V8.68359ZM77.9457 15.5827C78.2413 15.4996 78.5101 15.3903 78.7102 15.2933V15.2931C78.6223 15.3357 78.5211 15.3808 78.4102 15.4249C78.2687 15.4812 78.1114 15.5361 77.9457 15.5827ZM77.5138 18.1666C77.2175 18.2081 76.8986 18.2344 76.5781 18.2344C74.293 18.2344 72.9219 16.8984 72.9219 14.7656V8.68359H71.0352V6.29313H71.0344V8.68375H72.9211V14.7658C72.9211 16.8986 74.2922 18.2345 76.5773 18.2345C76.8981 18.2345 77.2173 18.2082 77.5138 18.1666ZM72.968 6.29297H72.9688V3.38672L75.7805 1.34822V1.34781L72.968 3.38688V6.29297ZM81.6328 14.6064V18.3002H85.1039V14.6064H81.6328ZM81.9328 18.0002H84.8039V18H81.9336V14.9064H81.9328V18.0002ZM43.4855 8.6981C43.6856 8.6578 43.9 8.63672 44.1289 8.63672C46.0977 8.63672 46.9648 10.1719 46.9648 12.1406C46.9648 13.8841 46.3007 15.2596 44.8152 15.5758C46.3001 15.2593 46.9641 13.8839 46.9641 12.1408C46.9641 10.172 46.0969 8.63688 44.1281 8.63688C43.8995 8.63688 43.6854 8.6579 43.4855 8.6981Z" fill="#335EEA"/>
</svg>
