<svg width="139" height="56" viewBox="0 0 139 56" fill="none" xmlns="http://www.w3.org/2000/svg">
<g clip-path="url(#clip0)">
<path d="M23.2558 17.4495L26.1064 12.4507C26.4775 11.753 26.5646 10.9375 26.3494 10.1763C26.1342 9.41512 25.6336 8.76794 24.9533 8.37142C24.2729 7.97491 23.4661 7.86011 22.7032 8.05126C21.9404 8.24242 21.2812 8.72457 20.8649 9.39588L18.0142 14.3947C15.5453 13.623 12.9121 13.5562 10.4077 14.2017C7.90329 14.8472 5.62597 16.1797 3.82922 18.0508C2.03247 19.9218 0.786779 22.2582 0.230807 24.7997C-0.325166 27.3412 -0.169606 29.9882 0.68017 32.446L5.97692 23.2352C6.56926 22.1918 7.3623 21.2779 8.30966 20.5467C9.25703 19.8156 10.3397 19.2819 11.4944 18.9769C12.6465 18.6545 13.8516 18.5703 15.0369 18.7294C16.2222 18.8885 17.3633 19.2876 18.3912 19.9026C19.4361 20.4979 20.3534 21.2958 21.0902 22.2501C21.8269 23.2044 22.3685 24.2962 22.6835 25.4625C22.9985 26.6288 23.0808 27.8463 22.9256 29.0448C22.7704 30.2433 22.3808 31.3989 21.7792 32.4449C21.1777 33.4908 20.3761 34.4064 19.4209 35.1387C18.4658 35.8709 17.3759 36.4053 16.2143 36.711C15.0527 37.0167 13.8425 37.0876 12.6535 36.9196C11.4646 36.7516 10.3205 36.348 9.2874 35.7322L12.322 30.4094C12.8406 30.712 13.4367 30.853 14.0349 30.8145C14.6331 30.776 15.2065 30.5598 15.6826 30.1931C16.1587 29.8265 16.5161 29.326 16.7095 28.7548C16.9029 28.1837 16.9237 27.5676 16.7693 26.9846C16.6148 26.4016 16.2921 25.8777 15.8418 25.4794C15.3916 25.0811 14.8341 24.8261 14.2398 24.7468C13.6456 24.6675 13.0414 24.7674 12.5036 25.0338C11.9658 25.3003 11.5185 25.7213 11.2185 26.2437L1.56296 43.0916C1.34775 43.4386 1.20409 43.8257 1.14052 44.2297C1.07696 44.6338 1.09478 45.0466 1.19295 45.4436C1.29111 45.8406 1.4676 46.2137 1.71192 46.5406C1.95624 46.8675 2.26338 47.1416 2.61509 47.3466C2.96679 47.5515 3.35586 47.6832 3.75915 47.7337C4.16243 47.7842 4.57169 47.7525 4.96256 47.6406C5.35344 47.5286 5.71794 47.3386 6.03439 47.0819C6.35083 46.8252 6.61274 46.5071 6.80454 46.1464L9.65523 41.1476C12.6756 42.0975 15.9272 41.9843 18.8752 40.8267C21.8232 39.6691 24.2921 37.5361 25.8758 34.7783C27.4596 32.0206 28.0639 28.8024 27.5894 25.653C27.1149 22.5036 25.5898 19.6105 23.2649 17.4495H23.2558ZM40.7737 21.0598H36.0838V34.4825H38.8426V30.0854H40.7737C43.4864 30.0854 45.7394 28.6969 45.7394 25.5495C45.7394 22.4021 43.4864 21.0598 40.7737 21.0598ZM40.6817 27.6323H38.7966V23.4666H40.6817C41.9691 23.4666 42.8887 24.0683 42.8887 25.5495C42.8887 27.0306 42.0151 27.6323 40.6817 27.6323ZM52.4983 28.9746H57.8318V26.614H52.4983V23.5129H58.5675V21.0598H49.7395V34.4825H58.8433V32.0757H52.4983V28.9746ZM66.1999 21.0598H63.4412V34.4825H72.2232V32.0757H66.1999V21.0598ZM82.2006 20.8746C80.8476 20.8838 79.5276 21.296 78.407 22.0593C77.2865 22.8227 76.4156 23.9029 75.9041 25.1639C75.3926 26.4248 75.2635 27.81 75.533 29.1447C75.8025 30.4795 76.4586 31.704 77.4185 32.6638C78.3784 33.6237 79.5992 34.276 80.9268 34.5383C82.2545 34.8007 83.6296 34.6615 84.8787 34.1381C86.1279 33.6148 87.1951 32.7309 87.9459 31.5978C88.6967 30.4647 89.0973 29.1332 89.0974 27.7711C89.1093 26.8582 88.9386 25.9523 88.5957 25.1071C88.2527 24.2619 87.7444 23.4948 87.1009 22.8514C86.4575 22.208 85.6921 21.7014 84.8502 21.3618C84.0084 21.0222 83.1073 20.8566 82.2006 20.8746ZM82.2006 32.2145C79.7637 32.2145 78.1084 30.2706 78.1084 27.7711C78.1084 25.2717 79.7637 23.3278 82.2006 23.3278C84.6374 23.3278 86.2927 25.2717 86.2927 27.7711C86.2927 30.2706 84.6374 32.2145 82.2006 32.2145ZM92.04 23.4666H95.8562V34.4825H98.615V23.4666H102.431V21.0135H92.04V23.4666ZM112.271 20.8746C110.918 20.8838 109.598 21.296 108.477 22.0593C107.357 22.8227 106.486 23.9029 105.974 25.1639C105.463 26.4248 105.334 27.81 105.603 29.1447C105.873 30.4795 106.529 31.704 107.489 32.6638C108.449 33.6237 109.669 34.276 110.997 34.5383C112.325 34.8007 113.7 34.6615 114.949 34.1381C116.198 33.6148 117.265 32.7309 118.016 31.5978C118.767 30.4647 119.167 29.1332 119.167 27.7711C119.179 26.8582 119.009 25.9523 118.666 25.1071C118.323 24.2619 117.815 23.4948 117.171 22.8514C116.528 22.208 115.762 21.7014 114.92 21.3618C114.079 21.0222 113.177 20.8566 112.271 20.8746ZM112.225 32.2145C109.788 32.2145 108.133 30.2706 108.133 27.7711C108.133 25.2717 109.788 23.3278 112.225 23.3278C114.662 23.3278 116.326 25.2717 116.326 27.7711C116.326 30.2706 114.708 32.2145 112.225 32.2145ZM131.959 26.7066C131.959 27.6323 132.143 29.1597 132.143 29.1597C131.665 28.507 131.142 27.8883 130.579 27.3083L123.867 20.9209H123.591V34.4825H126.119V28.8357C126.119 27.8637 125.936 26.3826 125.936 26.3826C125.936 26.3826 126.901 27.586 127.545 28.234L134.258 34.6214H134.534V21.0598H131.959V26.7066ZM137.89 17.195C137.892 17.1175 137.877 17.0406 137.847 16.9694C137.817 16.8981 137.772 16.8341 137.716 16.7815C137.659 16.729 137.592 16.6892 137.519 16.6647C137.446 16.6402 137.369 16.6316 137.292 16.6395H136.603C136.579 16.6416 136.557 16.652 136.54 16.669C136.523 16.6859 136.513 16.7083 136.511 16.7321H136.419V18.4447C136.421 18.4685 136.431 18.4909 136.448 18.5078C136.465 18.5247 136.487 18.5351 136.511 18.5372H136.649C136.672 18.5351 136.695 18.5247 136.711 18.5078C136.728 18.4909 136.738 18.4685 136.741 18.4447V17.8429H137.108L137.384 18.4447C137.409 18.4698 137.441 18.4861 137.476 18.4909H137.66C137.752 18.4909 137.798 18.3984 137.752 18.3521C137.66 18.1207 137.568 17.9355 137.476 17.7504C137.596 17.7167 137.702 17.644 137.777 17.5435C137.852 17.4431 137.892 17.3205 137.89 17.195ZM137.292 17.4727H136.833V16.9172H137.292C137.33 16.9118 137.368 16.9153 137.404 16.9273C137.44 16.9393 137.473 16.9596 137.499 16.9866C137.526 17.0136 137.546 17.0464 137.558 17.0826C137.57 17.1187 137.574 17.1572 137.568 17.195C137.569 17.2318 137.563 17.2685 137.55 17.3027C137.536 17.337 137.516 17.3682 137.49 17.3942C137.464 17.4203 137.433 17.4407 137.399 17.4542C137.365 17.4677 137.329 17.474 137.292 17.4727Z" fill="#869AB8"/>
<path d="M137.109 15.7603C136.647 15.7674 136.207 15.955 135.881 16.2833C135.555 16.6116 135.368 17.0549 135.361 17.5191C135.361 17.867 135.464 18.207 135.656 18.4963C135.848 18.7855 136.121 19.0109 136.44 19.1441C136.759 19.2772 137.11 19.312 137.449 19.2441C137.788 19.1763 138.1 19.0088 138.344 18.7628C138.588 18.5168 138.755 18.2034 138.822 17.8622C138.89 17.521 138.855 17.1674 138.723 16.846C138.591 16.5246 138.367 16.2499 138.079 16.0567C137.792 15.8634 137.454 15.7603 137.109 15.7603ZM137.109 19.0465C136.725 19.0363 136.36 18.8801 136.087 18.6095C135.814 18.3388 135.653 17.974 135.637 17.5885C135.637 17.2956 135.724 17.0092 135.885 16.7657C136.047 16.5221 136.277 16.3322 136.545 16.2201C136.814 16.108 137.11 16.0787 137.396 16.1359C137.681 16.193 137.943 16.3341 138.149 16.5412C138.355 16.7483 138.495 17.0123 138.552 17.2996C138.608 17.5869 138.579 17.8847 138.468 18.1553C138.357 18.426 138.168 18.6573 137.926 18.82C137.684 18.9828 137.4 19.0697 137.109 19.0697V19.0465Z" fill="#869AB8"/>
</g>
<defs>
<clipPath id="clip0">
<rect width="138.856" height="55.5424" fill="white"/>
</clipPath>
</defs>
</svg>
