<svg width="113" height="56" viewBox="0 0 113 56" fill="none" xmlns="http://www.w3.org/2000/svg">
<g clip-path="url(#clip0)">
<path d="M38.6673 28.1647C37.7109 27.6278 37.2099 27.1927 37.2099 26.5817C37.2099 25.7902 37.8885 25.3042 38.9679 25.3042C39.783 25.3228 40.5864 25.5053 41.3318 25.8412L42.2108 23.1103C42.2108 23.1103 41.4046 22.4716 39.0226 22.4716C35.7069 22.4716 33.3977 24.4109 33.3977 27.1001C33.3977 28.6322 34.4771 29.8078 35.9073 30.6502C37.0641 31.3167 37.4649 31.7981 37.4649 32.5016C37.4649 33.2051 36.891 33.83 35.8025 33.83C34.7157 33.7858 33.6519 33.4982 32.6872 32.9876L31.7763 35.7184C32.9193 36.3643 34.2129 36.6841 35.5201 36.6441C38.9361 36.6441 41.3727 34.9362 41.3727 31.8721C41.4046 30.2059 40.1476 29.0302 38.6673 28.1647ZM88.18 16.8525C87.8903 16.8513 87.6032 16.9088 87.3356 17.0217C87.068 17.1347 86.8253 17.3008 86.6217 17.5103C86.418 17.7198 86.2576 17.9685 86.1498 18.2418C86.042 18.5151 85.989 18.8076 85.9938 19.102C85.9938 20.2499 86.6953 21.0414 87.7747 21.0414H87.8248C88.1192 21.0529 88.4128 21.0029 88.6874 20.8945C88.962 20.7861 89.2118 20.6216 89.4214 20.4112C89.631 20.2008 89.7959 19.949 89.906 19.6713C90.016 19.3935 90.0688 19.0958 90.0611 18.7965C90.0796 18.5392 90.0439 18.2808 89.9564 18.0386C89.8689 17.7964 89.7315 17.5759 89.5535 17.3919C89.3755 17.2079 89.1609 17.0647 88.924 16.9716C88.6872 16.8786 88.4335 16.838 88.18 16.8525ZM78.8341 22.4207C76.2698 22.4207 74.8124 24.7349 74.8124 24.7349H74.7623L74.99 22.666H71.6242C71.4466 24.0545 71.1687 26.1883 70.8454 27.799L68.2083 41.9392H72.0022L73.0543 36.2229H73.1318C73.8198 36.5906 74.5914 36.7663 75.368 36.7321C79.8361 36.7321 82.751 32.1036 82.751 27.3917C82.751 24.7442 81.6215 22.4207 78.8341 22.4207ZM75.2177 33.7883C74.6494 33.7965 74.0969 33.5979 73.6601 33.2283L74.2886 29.6227C74.7441 27.2251 75.9692 25.6144 77.2764 25.6144C78.4333 25.6144 78.784 26.7113 78.784 27.7342C78.7931 30.2059 77.3265 33.7883 75.2177 33.7883ZM52.2809 22.4207C51.5056 22.4333 50.743 22.6234 50.0499 22.9768C49.3568 23.3302 48.751 23.8378 48.2775 24.4618L48.2274 24.4341L49.6712 16.6628H45.8772L42.1835 36.4081H46.0002L47.2572 29.6689C47.7583 27.114 49.0381 25.5588 50.245 25.5588C51.1013 25.5588 51.4247 26.1466 51.4247 26.989C51.4282 27.563 51.3702 28.1357 51.2516 28.697L49.8169 36.4359H53.6109L55.0911 28.4702C55.2631 27.6388 55.3562 26.7925 55.3689 25.943C55.3735 23.7213 54.2394 22.4207 52.2809 22.4207ZM63.9634 22.4207C59.4088 22.4207 56.3527 26.5863 56.3527 31.275C56.3527 34.2651 58.1745 36.6904 61.5768 36.6904C66.0722 36.6904 69.0873 32.6034 69.0873 27.8314C69.1101 25.0497 67.5296 22.4207 63.9634 22.4207ZM62.1051 33.7004C60.798 33.7004 60.2833 32.5803 60.2833 31.1732C60.2833 28.9562 61.4128 25.3552 63.4715 25.3552C64.8379 25.3552 65.2523 26.5308 65.2523 27.6694C65.2432 30.0855 64.1137 33.7004 62.1051 33.7004ZM82.8512 36.4081H86.6725L89.2595 22.7262H85.4154L82.8512 36.4081ZM98.9061 22.6799H96.2644L96.3919 22.0411C96.6197 20.7127 97.3712 19.5371 98.6692 19.5371C99.0801 19.5377 99.4881 19.6081 99.8762 19.7454L100.632 16.7322C99.9752 16.475 99.2721 16.3615 98.569 16.3989C97.2197 16.3597 95.9013 16.8129 94.8525 17.6764C93.5453 18.8012 92.9441 20.4073 92.6435 22.0411L92.5251 22.6799H90.767L90.2114 25.5912H91.9694L89.9609 36.3896H93.7548L95.7634 25.5912H98.3777L98.9061 22.6799ZM108.047 22.7262C108.047 22.7262 105.665 28.8034 104.604 32.1174H104.554C104.481 31.0483 103.643 22.7262 103.643 22.7262H99.6484L101.926 35.2834C101.984 35.4978 101.957 35.7267 101.853 35.9221C101.357 36.8485 100.651 37.6417 99.7942 38.2364C99.1377 38.7122 98.4145 39.0851 97.649 39.3426L98.7011 42.6103C100.09 42.2305 101.367 41.5124 102.422 40.5182C104.153 38.8612 105.761 36.3294 107.396 32.858L112.041 22.7262H108.047ZM23.6828 16.0102C23.5553 16.0102 21.1687 15.8343 21.1687 15.8343C21.1687 15.8343 19.5108 14.1495 19.3104 13.9829C19.2698 13.9439 19.2237 13.9111 19.1738 13.8857L17.9941 41.7957L27.3902 39.7267L23.9743 16.2694C23.9644 16.1978 23.9296 16.1322 23.876 16.0846C23.8225 16.037 23.7539 16.0106 23.6828 16.0102ZM18.6728 13.844C18.6455 13.844 18.2948 13.9458 17.7619 14.1217C17.2062 12.4878 16.227 10.9836 14.4962 10.9836H14.3459C14.1592 10.7145 13.9153 10.4915 13.6322 10.3313C13.3492 10.171 13.0343 10.0776 12.7108 10.0579C8.66639 10.0579 6.73526 15.1909 6.1295 17.7921C4.57184 18.255 3.4423 18.6345 3.31933 18.6854C2.4403 18.9678 2.40842 18.9956 2.31277 19.8379C2.19435 20.4535 -0.092041 38.4493 -0.092041 38.4493L17.566 41.8188L18.773 13.8162C18.7457 13.8162 18.6956 13.844 18.6728 13.844ZM14.1774 15.0659V15.2464L11.0621 16.1999C11.6633 13.8533 12.7928 12.7054 13.7721 12.2703C14.0752 13.1689 14.2126 14.1167 14.1774 15.0659ZM12.5697 11.1595C12.7584 11.163 12.9415 11.2261 13.0934 11.34C11.8136 11.9509 10.4062 13.5107 9.83236 16.6257C8.9761 16.9035 8.14717 17.1627 7.36834 17.3895C8.04697 15.015 9.67751 11.1595 12.5697 11.1595ZM13.2711 25.045C12.5498 24.6922 11.7622 24.5012 10.9619 24.485C9.0763 24.485 9.00343 25.6838 9.00343 25.9893C9.00343 27.6 13.2073 28.2341 13.2073 32.0943C13.2073 35.1306 11.3217 37.07 8.76204 37.07C7.9031 37.0917 7.04921 36.9303 6.25536 36.5963C5.4615 36.2623 4.74528 35.763 4.15282 35.1306L4.98175 32.3535C4.98175 32.3535 6.58951 33.7421 7.94677 33.7421C8.10928 33.7483 8.27135 33.7212 8.42334 33.6624C8.57532 33.6036 8.7141 33.5143 8.8314 33.3998C8.94871 33.2854 9.04214 33.1481 9.10612 32.9962C9.17011 32.8442 9.20334 32.6808 9.20383 32.5155C9.20383 30.3725 5.73781 30.2707 5.73781 26.7483C5.73781 23.7861 7.81924 20.9025 12.0641 20.9025C12.9015 20.8503 13.7385 21.0093 14.5008 21.3654L13.2711 25.045ZM15.2295 14.9363V14.6077C15.2496 13.7682 15.131 12.9312 14.8788 12.1314C15.7897 12.2333 16.3591 13.2793 16.7371 14.4457C16.2862 14.5846 15.7852 14.7373 15.2295 14.9132V14.9363Z" fill="#869AB8"/>
</g>
<defs>
<clipPath id="clip0">
<rect width="112.042" height="55.5424" fill="white" transform="translate(0.00012207)"/>
</clipPath>
</defs>
</svg>
