<svg width="113" height="56" viewBox="0 0 113 56" fill="none" xmlns="http://www.w3.org/2000/svg">
<path d="M97.3185 12.96C95.2137 12.9545 93.1547 13.5758 91.402 14.7453C89.6493 15.9147 88.2818 17.5798 87.4725 19.5296C86.6633 21.4794 86.4487 23.6263 86.8559 25.6986C87.2632 27.7709 88.274 29.6753 89.7603 31.1707C91.2467 32.6662 93.1417 33.6855 95.2056 34.0996C97.2695 34.5137 99.4095 34.304 101.355 33.4969C103.3 32.6899 104.962 31.3219 106.132 29.5661C107.302 27.8103 107.927 25.7456 107.927 23.6334C107.924 20.8082 106.807 18.099 104.819 16.0987C102.83 14.0983 100.134 12.9698 97.3185 12.96ZM105.621 17.6765C105.07 18.0439 104.497 18.3763 103.905 18.6716C103.546 17.9571 103.112 17.2836 102.609 16.6628C103.042 16.3974 103.455 16.1004 103.845 15.7741C104.504 16.3275 105.091 16.962 105.593 17.6626L105.621 17.6765ZM101.119 14.1218C101.972 14.4719 102.773 14.9392 103.499 15.5103C103.128 15.814 102.737 16.0909 102.327 16.3388C101.804 15.7352 101.216 15.1904 100.575 14.7142C100.77 14.5352 100.952 14.3418 101.119 14.1356V14.1218ZM101.931 16.5564C101.359 16.8658 100.758 17.1185 100.137 17.3108C99.8765 16.7134 99.5808 16.1322 99.251 15.5705C99.5931 15.4159 99.9178 15.225 100.22 15.0012C100.842 15.4586 101.416 15.9798 101.931 16.5564ZM100.667 13.9736C100.524 14.1387 100.37 14.2934 100.206 14.4365C99.643 14.051 99.0453 13.7194 98.4208 13.446C99.1881 13.5282 99.9433 13.699 100.672 13.9551L100.667 13.9736ZM99.846 14.7142C99.5908 14.8995 99.3154 15.0548 99.025 15.1771C98.7091 14.6814 98.3657 14.2039 97.9965 13.7468C98.6402 14.0126 99.2578 14.338 99.8414 14.7188L99.846 14.7142ZM97.4983 13.8209C97.8952 14.3016 98.2632 14.8054 98.6007 15.3298C98.2427 15.4404 97.8724 15.5057 97.4983 15.5242V13.8209ZM97.4983 15.9639C97.955 15.9455 98.4067 15.8629 98.8405 15.7186C99.1651 16.2643 99.4547 16.8301 99.7076 17.4126C98.9855 17.6011 98.2442 17.7051 97.4983 17.7228V15.9639ZM97.0371 13.8394V15.5242C96.6705 15.5061 96.3078 15.4408 95.9578 15.3298C96.287 14.8114 96.6474 14.3136 97.0371 13.8394ZM95.5335 15.1771C95.246 15.0549 94.9735 14.8996 94.7218 14.7142C95.3028 14.3305 95.9209 14.0064 96.5667 13.7468C96.1976 14.2013 95.8557 14.6774 95.5427 15.1724L95.5335 15.1771ZM96.1562 13.4414C95.5299 13.7173 94.9295 14.0488 94.362 14.4319C94.1964 14.29 94.0422 14.1352 93.9008 13.969C94.6323 13.7133 95.3906 13.5425 96.1608 13.4599L96.1562 13.4414ZM103.448 31.7796C102.037 31.002 102.009 29.9282 102.064 29.5209C102.12 29.1136 102.42 29.2987 102.59 29.2987C103.513 29.2987 104.5 29.021 105.704 27.7852C106.491 26.8725 106.903 25.6926 106.854 24.486C106.805 23.2794 106.3 22.1369 105.441 21.2914C103.19 19.1206 100.791 19.5001 99.2556 21.4534C99.0231 21.6799 98.7468 21.8563 98.4438 21.9718C98.1408 22.0872 97.8175 22.1392 97.4937 22.1245C96.5067 22.0875 97.1294 22.8651 97.1294 23.0502C97.1294 23.2353 96.9772 23.3279 96.8941 23.3001C96.5574 23.2076 96.6912 23.7074 96.6912 23.8556C96.6902 23.9131 96.668 23.9681 96.6287 24.0101C96.5895 24.052 96.5362 24.0778 96.479 24.0824C96.0639 24.0824 96.1746 24.4619 96.1885 24.5452C96.1965 24.6131 96.1857 24.6819 96.1572 24.744C96.1287 24.806 96.0837 24.859 96.027 24.897C95.9379 24.981 95.8663 25.082 95.8164 25.194C95.7666 25.306 95.7394 25.4269 95.7365 25.5496C95.7365 26.0125 96.1516 26.3179 96.8388 26.8363C97.0735 26.9785 97.2688 27.1776 97.4067 27.4154C97.5445 27.6533 97.6204 27.9221 97.6275 28.1971C97.628 28.6374 97.698 29.0748 97.835 29.4931C98.0195 29.956 97.9918 30.7798 97.0417 30.8169C95.8748 30.8632 93.8132 31.7981 93.6241 31.8629C92.9183 32.1148 92.1569 32.1661 91.424 32.011C91.0636 31.7494 90.7215 31.4633 90.4001 31.1548C90.3575 30.9243 90.3656 30.6872 90.4237 30.4602C90.4819 30.2331 90.5887 30.0216 90.7368 29.8403C91.1062 30.1249 91.5691 30.2588 92.0328 30.2152C92.7542 30.1608 93.4708 30.0556 94.1775 29.9004C94.2502 29.8683 94.3287 29.8517 94.4081 29.8517C94.4875 29.8517 94.5661 29.8683 94.6387 29.9004C95.2476 30.1226 96.0824 30.192 96.4191 29.021C96.7558 27.85 95.9578 28.174 95.8564 28.2249C95.7549 28.2758 95.6165 28.2619 95.6673 28.1601C95.8149 27.8639 95.5935 27.8963 95.469 27.887C95.1268 27.9343 94.811 28.0976 94.5742 28.3499C94.5341 28.3936 94.4825 28.4251 94.4254 28.4406C94.3683 28.4562 94.3079 28.4552 94.2513 28.4378C93.8132 28.2203 92.5263 28.535 92.1297 27.8315C92.0449 26.6446 91.8723 25.4657 91.6131 24.3045C91.5794 24.2302 91.5659 24.1482 91.574 24.0669C91.5821 23.9856 91.6115 23.9079 91.6592 23.8417C91.9913 23.351 92.8907 23.8833 93.3796 23.8694C93.5499 23.8833 93.7206 23.8468 93.8706 23.7646C94.0205 23.6824 94.1432 23.5579 94.2236 23.4066C94.3758 23.2122 94.4912 23.3187 94.5742 23.2677C94.6572 23.2168 94.5742 23.0595 94.6157 22.9854C94.6572 22.9113 94.6987 22.9437 94.8002 22.8558C94.9016 22.7679 94.8002 22.5781 94.8371 22.504C94.9847 22.2865 95.3767 22.4624 95.1369 21.8884C95.0958 21.7336 95.0955 21.5708 95.1359 21.4159C95.1763 21.2609 95.2561 21.1191 95.3675 21.0044C95.6488 20.6341 96.7512 19.0882 94.814 17.4774C92.9691 15.9408 91.0965 16.0657 89.8927 17.3756C88.6889 18.6855 89.2885 20.6156 89.4315 21.0784C89.4716 21.3181 89.4284 21.5643 89.3092 21.7758C89.1899 21.9873 89.0019 22.1512 88.7766 22.2402C88.1887 22.5668 87.6368 22.9547 87.13 23.3973C87.1696 21.3949 87.7967 19.4487 88.933 17.8021C90.0692 16.1556 91.664 14.8818 93.518 14.1403C93.6832 14.3463 93.8636 14.5397 94.0576 14.7188C93.6379 15.029 92.7108 15.8621 92.7108 15.8621C92.7108 15.8621 92.8354 15.8621 92.9507 15.9084L93.2089 15.9824C93.2089 15.9824 94.0207 15.2835 94.4081 15.0104C94.7073 15.2382 95.0324 15.4293 95.3767 15.5797C95.1922 15.8945 94.7264 16.7693 94.7264 16.7693C94.7264 16.7693 94.8371 16.8341 94.9293 16.8989C94.9844 16.9352 95.0368 16.9754 95.0861 17.0192C95.0861 17.0192 95.5935 16.0611 95.7872 15.7417C96.2141 15.8818 96.6577 15.9642 97.1063 15.9871V17.7459C96.8526 17.7459 96.2161 17.7089 95.9532 17.6811H95.7918L95.8794 17.8153C95.9446 17.909 96.0017 18.0081 96.0501 18.1116L96.0732 18.1486H96.1147C96.3038 18.1486 96.8895 18.1856 97.1063 18.1902V21.3886H97.5675V20.6387C98.2178 20.6063 98.7575 20.5647 99.4124 20.5045H99.4401L100.012 19.9907L99.703 20.0231C99.0158 20.1111 98.4069 20.1527 97.8581 20.1851H97.5721V18.1717C98.3775 18.1538 99.1779 18.0404 99.9567 17.8338C100.173 18.3661 100.575 19.6436 100.575 19.6436L100.99 19.514C100.99 19.514 100.593 18.2412 100.381 17.7135C101.042 17.5047 101.682 17.2319 102.29 16.8989C102.778 17.5064 103.2 18.1643 103.55 18.8614C103.236 19.0049 102.659 19.2085 102.659 19.2085C102.932 19.238 103.202 19.2907 103.467 19.3659L103.734 19.2548C103.776 19.3427 103.854 19.5325 103.854 19.5325L104.426 19.7871L104.361 19.6251C104.361 19.6251 104.172 19.1622 104.122 19.065C104.715 18.7634 105.29 18.4249 105.842 18.0514C107.251 20.2189 107.789 22.8416 107.348 25.3914C106.908 27.9412 105.521 30.2288 103.467 31.7935L103.448 31.7796ZM85.6956 15.7927L85.5296 15.9454C84.9069 16.4962 83.4817 17.9588 83.6847 19.5649L83.7077 19.6806L83.7769 19.9954L83.9752 19.8102C84.9539 18.8007 85.5844 17.5029 85.774 16.1074L85.8478 15.6445L85.6818 15.7927H85.6956ZM82.7991 18.5698L82.7299 18.7642C82.5486 19.2751 82.4233 19.8043 82.3563 20.3425C82.2226 21.4024 82.2456 22.8975 83.1681 24.0176L83.2696 24.1518L83.3756 24.286L83.5094 23.6056C83.646 21.9723 83.4803 20.3277 83.0205 18.7549L82.8729 18.3754L82.7991 18.5698ZM81.7475 22.9021V23.1011C81.6368 24.1796 81.7106 26.8456 83.8599 28.2341L84.109 28.4008V28.0999C84.0767 27.0909 82.9006 24.0731 82.015 23.0085L81.766 22.7031V22.8975L81.7475 22.9021ZM82.098 27.6695L82.1396 27.85C82.4532 29.3774 83.8968 31.8537 86.1292 32.5757L86.4336 32.6729L86.3229 32.3721C85.9078 31.2288 83.7585 28.5628 82.3748 27.6834L82.0658 27.4843L82.098 27.6695Z" fill="#869AB8"/>
<path d="M86.5997 18.1023L86.4244 18.2041C84.7594 19.227 83.9846 20.4582 84.0399 21.9764V22.3281L84.2797 22.1245C85.3341 21.0704 86.1395 19.7924 86.6366 18.3846L86.7519 17.9912L86.5813 18.1023H86.5997ZM85.6219 21.4302L85.4928 21.5505C85.0684 21.9578 83.6894 23.4297 83.8093 25.2534C83.8378 25.5564 83.9028 25.8548 84.003 26.142L84.0999 26.4336L84.2797 26.1837C84.9347 25.258 85.8064 22.8049 85.7603 21.6616V21.3145L85.6357 21.4348L85.6219 21.4302ZM85.6865 24.5869L85.5988 24.7257C84.95 25.62 84.5909 26.693 84.5703 27.7991C84.5954 28.538 84.8341 29.2537 85.2575 29.8587L85.4051 30.0717L85.5251 29.8449C85.8248 29.2802 86.0647 27.4473 86.0278 25.9939C86.028 25.5803 85.9769 25.1683 85.8756 24.7674L85.788 24.448L85.6865 24.5869ZM86.4982 27.9611L86.4567 28.1045C86.2517 28.7347 86.1534 29.395 86.1662 30.0578C86.1651 30.7181 86.3345 31.3674 86.6578 31.9425C86.9811 32.5176 87.4473 32.9989 88.0111 33.3394L88.2094 33.4644L88.2555 33.1959V32.9784C88.2278 31.8305 87.3746 28.9423 86.7104 28.0582L86.5259 27.8176L86.4798 27.9611H86.4982ZM84.1552 32.4368L84.2428 32.5803C85.1376 34.0892 86.6551 36.0286 89.4916 35.5287L89.736 35.4917L89.5977 35.288C89.0673 34.4965 85.6219 32.5433 84.3997 32.3443L84.0676 32.2934L84.1552 32.4368ZM88.357 36.26L87.8958 36.3803L88.3247 36.5562C90.1327 37.2968 92.3927 37.5143 93.7072 37.0746C94.153 36.9052 94.5517 36.6305 94.8695 36.2739C97.1756 36.5192 99.3387 38.4447 100.602 40.0184L100.667 40.0971L100.769 40.0647C100.941 39.9908 101.098 39.8839 101.23 39.7499L101.317 39.6527L101.239 39.5463C100.283 38.3799 99.1078 37.4142 97.7798 36.7043C95.9349 35.7786 92.6556 35.089 88.3616 36.2415L88.357 36.26ZM88.4538 31.4371L88.4769 31.5944C88.7444 33.2977 89.4408 35.538 92.3143 35.2973H92.4988L92.4526 35.1168C92.2543 34.3392 89.6207 32.0897 88.7029 31.451L88.4308 31.3075L88.4538 31.4602V31.4371ZM108.771 15.6445L108.845 16.1074C109.032 17.5027 109.661 18.8008 110.639 19.8102L110.837 19.9954L110.906 19.6806V19.5649C111.128 17.9588 109.702 16.4962 109.061 15.9408L108.891 15.7926L108.729 15.6445H108.771ZM111.76 18.3754L111.612 18.7549C111.15 20.3273 110.984 21.9723 111.123 23.6056L111.257 24.286L111.363 24.1518L111.464 24.0175C112.387 22.8974 112.41 21.3978 112.276 20.3425C112.209 19.8043 112.084 19.2751 111.902 18.7642L111.833 18.5651L111.76 18.3754ZM112.871 22.7077L112.622 23.0132C111.746 24.0916 110.565 27.1094 110.533 28.1045V28.4054L110.791 28.2388C112.936 26.8502 112.996 24.1657 112.922 23.0872V22.6938L112.871 22.7077ZM112.539 27.4843L112.23 27.6833C110.846 28.5628 108.697 31.2288 108.282 32.372L108.167 32.6729L108.476 32.5757C110.708 31.8536 112.165 29.3774 112.465 27.85L112.507 27.6648L112.539 27.4843ZM107.927 17.9403L108.042 18.3383C108.508 19.7563 109.287 21.0504 110.32 22.1245L110.56 22.3281V21.981C110.648 20.4628 109.892 19.2039 108.254 18.1625L108.079 18.0514L107.904 17.9403H107.927ZM108.881 21.2913V21.6385C108.84 22.7817 109.707 25.2302 110.371 26.1606L110.551 26.4105L110.643 26.1189C110.749 25.8334 110.812 25.534 110.832 25.2302C110.952 23.4112 109.573 21.9393 109.149 21.5274L109.024 21.4071L108.895 21.2867L108.881 21.2913ZM108.849 24.448L108.752 24.7674C108.653 25.1686 108.604 25.5805 108.605 25.9939C108.572 27.4473 108.808 29.2802 109.112 29.8449L109.227 30.0763L109.375 29.8587C109.798 29.254 110.036 28.5379 110.058 27.7991C110.038 26.6935 109.681 25.6207 109.034 24.7257L108.937 24.5869L108.849 24.448ZM108.088 27.8176L107.899 28.0582C107.24 28.9423 106.386 31.8305 106.354 32.9784V33.1959L106.395 33.4644L106.598 33.3348C107.16 32.9929 107.625 32.512 107.948 31.9382C108.271 31.3644 108.441 30.7169 108.443 30.0578C108.45 29.395 108.35 28.7356 108.148 28.1045L108.102 27.9611L108.06 27.8176H108.088ZM110.56 32.2934L110.228 32.3443C109.011 32.5433 105.561 34.4965 105.035 35.288L104.901 35.4917L105.136 35.5287C107.977 36.0286 109.495 34.0892 110.39 32.5803L110.477 32.4368L110.56 32.2934Z" fill="#869AB8"/>
<path d="M96.857 36.7042C95.5256 37.4131 94.3469 38.3789 93.3886 39.5461L93.3102 39.6526L93.3978 39.7498C93.5305 39.8827 93.687 39.9895 93.859 40.0645L93.9559 40.0969L94.025 40.0183C95.2842 38.4446 97.4473 36.5145 99.7581 36.2738C100.073 36.6304 100.471 36.9038 100.916 37.0699C102.23 37.5327 104.495 37.2967 106.303 36.5561L106.727 36.3802L106.266 36.2599C101.972 35.0889 98.7019 35.797 96.8477 36.7227L96.857 36.7042ZM106.201 31.2842L105.925 31.4277C105.002 32.0664 102.373 34.3205 102.179 35.0935L102.138 35.274H102.318C105.191 35.5193 105.883 33.2791 106.155 31.5712L106.178 31.4138V31.2611L106.201 31.2842ZM33.5908 14.0105H37.1837V17.2968H33.5908V14.0105ZM36.8978 37.0282H33.8814V21.0274H36.8978V37.0282ZM11.0692 21.0413H14.0856V37.0514H11.1476V34.714H11.0692C9.8608 36.7274 7.84064 37.5512 5.59909 37.5512C2.30594 37.5281 0.373413 34.9778 0.373413 31.7563V21.0413H3.39443V30.5159C3.39443 33.293 4.03092 35.3295 6.9228 35.3295C7.67858 35.344 8.4214 35.1313 9.05587 34.719C9.69033 34.3066 10.1875 33.7133 10.4835 33.0153C10.8775 31.8067 11.0753 30.5424 11.0692 29.2708V21.0413ZM20.1369 23.4018H20.1968C21.2161 21.393 23.4254 20.5645 25.0305 20.5645C26.142 20.5645 31.0679 20.8515 31.0679 25.9845V37.0514H28.0469V26.975C28.0469 24.3275 26.9353 22.8927 24.394 22.8927C23.3032 22.8838 22.2528 23.3061 21.4698 24.0683C21.0086 24.5312 20.1968 25.2162 20.1968 28.3451V37.0514H17.1804V21.0413H20.1369V23.4018ZM49.5446 26.1743C49.3831 24.1748 48.4422 22.7862 46.2883 22.7862C43.4195 22.7862 42.3126 25.2856 42.3126 29.0301C42.3126 32.7746 43.4195 35.2694 46.2883 35.2694C48.2762 35.2694 49.5169 33.9734 49.6645 31.6915H52.6717C52.4134 35.2694 49.7659 37.4587 46.2606 37.4587C41.1872 37.4587 39.1532 33.8484 39.1532 29.1551C39.1532 24.4618 41.51 20.5969 46.5143 20.5969C49.8628 20.5969 52.3857 22.7214 52.5379 26.1512H49.5446V26.1743ZM57.1917 29.6226C56.9703 32.3997 58.1141 35.2971 61.1674 35.2971C63.5058 35.2971 64.6773 34.3714 65.0186 32.0572H68.1826C67.7214 35.6721 64.9218 37.4772 61.1397 37.4772C56.0663 37.4772 54.0277 33.8669 54.0277 29.1736C54.0277 24.4803 56.3707 20.6154 61.4073 20.6154C66.144 20.7173 68.381 23.7212 68.381 28.1322V29.6226H57.1917ZM65.2124 27.5305C65.2769 24.8737 64.0731 22.8094 61.1674 22.8094C58.6722 22.8094 57.1917 24.9292 57.1917 27.5305H65.2124ZM71.7479 36.9819V23.1658H69.0267V21.069H71.7479V17.6486C71.8494 14.1633 74.4691 13.2468 76.7153 13.2468C77.4378 13.2907 78.1552 13.396 78.86 13.5616V16.0656C78.3526 16.0378 77.8499 15.9684 77.3426 15.9684C75.6406 15.9684 74.6582 16.4313 74.7505 18.1577V21.069H78.4403V23.1658H74.7505V36.9819H71.7479Z" fill="#869AB8"/>
</svg>
